[Parsed_showinfo_2 @ 00000198b67eeac0] n:   0 pts:   6656 pts_time:0.52    pos:   307026 fmt:yuvj444p sar:16/9 s:300x300 i:P iskey:0 type:P checksum:C78421B5 plane_checksum:[B05A78EC DEDD4395 D0766525] mean:[132 104 128 ] stdev:[35.3 8.0 5.2 ]
[Parsed_showinfo_2 @ 00000198b67eeac0] n:   1 pts:   7168 pts_time:0.56    pos:   399617 fmt:yuvj444p sar:16/9 s:300x300 i:P iskey:0 type:B checksum:E6E8CF74 plane_checksum:[50438AE3 9EC71EB7 3A6C25DA] mean:[121 106 129 ] stdev:[45.2 9.4 5.3 ]
[Parsed_showinfo_2 @ 00000198b67eeac0] n:   2 pts:   7680 pts_time:0.6     pos:   411947 fmt:yuvj444p sar:16/9 s:300x300 i:P iskey:0 type:B checksum:F75E10E7 plane_checksum:[37B1E8FF AF973550 3668F27A] mean:[111 107 130 ] stdev:[51.3 10.3 5.2 ]
[Parsed_showinfo_2 @ 00000198b67eeac0] n:   3 pts:   8192 pts_time:0.64    pos:   327064 fmt:yuvj444p sar:16/9 s:300x300 i:P iskey:0 type:P checksum:E3283BC0 plane_checksum:[4B6BACFB 75E8BBC1 0D32D2E6] mean:[105 108 130 ] stdev:[54.4 10.7 4.9 ]
[Parsed_showinfo_2 @ 00000198b67eeac0] n:   4 pts:   9216 pts_time:0.72    pos:   531726 fmt:yuvj444p sar:16/9 s:300x300 i:P iskey:0 type:B checksum:8E544461 plane_checksum:[A1F0D9C8 13E93CFE DF7E2D8C] mean:[111 107 130 ] stdev:[55.0 10.1 4.6 ]
[Parsed_showinfo_2 @ 00000198b67eeac0] n:   5 pts:   9728 pts_time:0.76    pos:   565676 fmt:yuvj444p sar:16/9 s:300x300 i:P iskey:0 type:B checksum:E8D679AA plane_checksum:[F0D8C58E D74D327D D6668190] mean:[127 104 129 ] stdev:[41.5 7.9 4.8 ]
[Parsed_showinfo_2 @ 00000198b67eeac0] n:   6 pts:  10240 pts_time:0.8     pos:   429703 fmt:yuvj444p sar:16/9 s:300x300 i:P iskey:0 type:P checksum:63922968 plane_checksum:[F6971955 BC7A38ED 79ACD717] mean:[135 103 129 ] stdev:[33.1 7.1 4.9 ]
[Parsed_showinfo_2 @ 00000198b67eeac0] n:   7 pts:  16896 pts_time:1.32    pos:   646218 fmt:yuvj444p sar:16/9 s:300x300 i:P iskey:0 type:P checksum:DA9CDF90 plane_checksum:[4679A270 2F5F7C1A EF5CC0F7] mean:[126 104 129 ] stdev:[45.4 9.1 4.7 ]
[Parsed_showinfo_2 @ 00000198b67eeac0] n:   8 pts:  17408 pts_time:1.36    pos:   653881 fmt:yuvj444p sar:16/9 s:300x300 i:P iskey:0 type:P checksum:2CC99A55 plane_checksum:[D50DFB09 7465B29F 87A9EC8F] mean:[103 108 130 ] stdev:[60.1 11.0 4.6 ]
[Parsed_showinfo_2 @ 00000198b67eeac0] n:   9 pts:  17920 pts_time:1.4     pos:   670257 fmt:yuvj444p sar:16/9 s:300x300 i:P iskey:1 type:I checksum:02BF6C0B plane_checksum:[CFB3BD61 AD3E4A17 D2196484] mean:[108 113 129 ] stdev:[42.9 8.4 5.9 ]
frame=   10 fps=0.0 q=18.3 size=N/A time=00:00:01.44 bitrate=N/A speed=2.82x    frame=   10 fps=9.9 q=18.3 size=N/A time=00:00:01.44 bitrate=N/A speed=1.42x    [Parsed_showinfo_2 @ 00000198b67eeac0] n:  10 pts:  84992 pts_time:6.64    pos:  2023479 fmt:yuvj444p sar:16/9 s:300x300 i:P iskey:0 type:I checksum:FB1269FD plane_checksum:[9609D300 B0ABB40D C54AE2D2] mean:[98 111 122 ] stdev:[29.2 5.7 5.8 ]
[Parsed_showinfo_2 @ 00000198b67eeac0] n:  11 pts:  85504 pts_time:6.68    pos:  2189314 fmt:yuvj444p sar:16/9 s:300x300 i:P iskey:0 type:B checksum:170F59B8 plane_checksum:[0C3AA632 59A8D08F B1ABE2D9] mean:[99 111 122 ] stdev:[29.1 5.7 5.8 ]
frame=   12 fps=7.9 q=24.3 size=N/A time=00:00:06.72 bitrate=N/A speed= 4.4x    [Parsed_showinfo_2 @ 00000198b67eeac0] n:  12 pts: 139776 pts_time:10.92   pos:  3396194 fmt:yuvj444p sar:16/9 s:300x300 i:P iskey:1 type:I checksum:FB37E838 plane_checksum:[89EA05D5 F2810872 2CACD9F1] mean:[127 111 146 ] stdev:[61.9 10.5 11.6 ]
[Parsed_showinfo_2 @ 00000198b67eeac0] n:  13 pts: 140288 pts_time:10.96   pos:  3460735 fmt:yuvj444p sar:16/9 s:300x300 i:P iskey:0 type:P checksum:FFBD73CB plane_checksum:[78FB4AB4 FC73BFF4 E9156914] mean:[128 110 147 ] stdev:[61.6 10.4 11.6 ]
[Parsed_showinfo_2 @ 00000198b67eeac0] n:  14 pts: 140800 pts_time:11      pos:  3501885 fmt:yuvj444p sar:16/9 s:300x300 i:P iskey:0 type:B checksum:6E214DB5 plane_checksum:[73D49269 FBE9DAB2 1CC4E07C] mean:[128 111 147 ] stdev:[61.3 10.4 11.5 ]
[Parsed_showinfo_2 @ 00000198b67eeac0] n:  15 pts: 147968 pts_time:11.56   pos:  3729146 fmt:yuvj444p sar:16/9 s:300x300 i:P iskey:0 type:P checksum:8C73F090 plane_checksum:[A3F25C75 18E00E5C B45B85BF] mean:[123 111 145 ] stdev:[60.2 9.9 10.7 ]
[Parsed_showinfo_2 @ 00000198b67eeac0] n:  16 pts: 151552 pts_time:11.84   pos:  3838545 fmt:yuvj444p sar:16/9 s:300x300 i:P iskey:0 type:P checksum:0BAF4C18 plane_checksum:[BF77F3B8 C6E0EB47 EA646CFB] mean:[131 111 146 ] stdev:[59.8 9.9 10.8 ]
[Parsed_showinfo_2 @ 00000198b67eeac0] n:  17 pts: 153088 pts_time:11.96   pos:  3897510 fmt:yuvj444p sar:16/9 s:300x300 i:P iskey:0 type:P checksum:F37FF4A1 plane_checksum:[28C9695B 066D9923 4A81F214] mean:[131 110 146 ] stdev:[59.1 9.4 10.2 ]
[Parsed_showinfo_2 @ 00000198b67eeac0] n:  18 pts: 153600 pts_time:12      pos:  3926429 fmt:yuvj444p sar:16/9 s:300x300 i:P iskey:0 type:P checksum:2152A8BE plane_checksum:[C3AE1FF3 F131ABB8 4ACADD04] mean:[130 110 146 ] stdev:[59.1 9.3 10.0 ]
frame=   19 fps=9.3 q=24.8 size=N/A time=00:00:12.04 bitrate=N/A speed=5.91x    [Parsed_showinfo_2 @ 00000198b67eeac0] n:  19 pts: 158208 pts_time:12.36   pos:  4104578 fmt:yuvj444p sar:16/9 s:300x300 i:P iskey:0 type:P checksum:DCE9EDDD plane_checksum:[E3001425 C859DAC3 CDA7FEE6] mean:[130 111 145 ] stdev:[60.2 9.0 10.0 ]
[Parsed_showinfo_2 @ 00000198b67eeac0] n:  20 pts: 160768 pts_time:12.56   pos:  4198284 fmt:yuvj444p sar:16/9 s:300x300 i:P iskey:0 type:P checksum:485FF25C plane_checksum:[1DBB574E 08D32DC7 B03B6D47] mean:[131 110 147 ] stdev:[60.0 9.4 10.2 ]
[Parsed_showinfo_2 @ 00000198b67eeac0] n:  21 pts: 161280 pts_time:12.6    pos:  4235863 fmt:yuvj444p sar:16/9 s:300x300 i:P iskey:0 type:B checksum:D56E3845 plane_checksum:[95733484 523D4E6F CDA1B543] mean:[130 110 147 ] stdev:[60.1 9.4 10.2 ]
[Parsed_showinfo_2 @ 00000198b67eeac0] n:  22 pts: 163840 pts_time:12.8    pos:  4327466 fmt:yuvj444p sar:16/9 s:300x300 i:P iskey:0 type:B checksum:5D5DB8C9 plane_checksum:[43AEE049 C39F9CCE 76CD3BA3] mean:[127 110 147 ] stdev:[60.8 9.1 9.5 ]
[Parsed_showinfo_2 @ 00000198b67eeac0] n:  23 pts: 165888 pts_time:12.96   pos:  4362944 fmt:yuvj444p sar:16/9 s:300x300 i:P iskey:0 type:P checksum:C1CE1353 plane_checksum:[816B25B5 CC4E6164 E5A48C2B] mean:[123 110 147 ] stdev:[60.4 9.1 9.6 ]
[Parsed_showinfo_2 @ 00000198b67eeac0] n:  24 pts: 168960 pts_time:13.2    pos:  4513242 fmt:yuvj444p sar:16/9 s:300x300 i:P iskey:0 type:B checksum:ED63AF30 plane_checksum:[59A20FA8 D0457C9F CF1E22E9] mean:[126 110 148 ] stdev:[59.9 9.4 10.7 ]
[Parsed_showinfo_2 @ 00000198b67eeac0] n:  25 pts: 171008 pts_time:13.36   pos:  4546908 fmt:yuvj444p sar:16/9 s:300x300 i:P iskey:0 type:P checksum:C51C3D98 plane_checksum:[CB650FA8 77FCB224 C8D17BBD] mean:[124 110 148 ] stdev:[59.1 9.5 10.6 ]
[Parsed_showinfo_2 @ 00000198b67eeac0] n:  26 pts: 173568 pts_time:13.56   pos:  4638795 fmt:yuvj444p sar:16/9 s:300x300 i:P iskey:0 type:P checksum:35B2D8C0 plane_checksum:[CAA32BD8 8447A72D 042E05BB] mean:[120 110 148 ] stdev:[60.0 9.3 10.1 ]
[Parsed_showinfo_2 @ 00000198b67eeac0] n:  27 pts: 176128 pts_time:13.76   pos:  4731546 fmt:yuvj444p sar:16/9 s:300x300 i:P iskey:0 type:P checksum:959CDF1A plane_checksum:[06E6DFFB 1F817A9F 44168471] mean:[121 110 147 ] stdev:[60.1 9.4 10.4 ]
[Parsed_showinfo_2 @ 00000198b67eeac0] n:  28 pts: 176640 pts_time:13.8    pos:  4761836 fmt:yuvj444p sar:16/9 s:300x300 i:P iskey:0 type:P checksum:95DC85C0 plane_checksum:[4B6F6BBC 29BEA54D 317674A8] mean:[122 110 147 ] stdev:[60.4 9.4 10.5 ]
[Parsed_showinfo_2 @ 00000198b67eeac0] n:  29 pts: 181248 pts_time:14.16   pos:  4913961 fmt:yuvj444p sar:16/9 s:300x300 i:P iskey:0 type:P checksum:538D7876 plane_checksum:[1E200BC8 74A7676D 36F50541] mean:[123 109 148 ] stdev:[60.2 9.8 10.5 ]
[Parsed_showinfo_2 @ 00000198b67eeac0] n:  30 pts: 181760 pts_time:14.2    pos:  4963809 fmt:yuvj444p sar:16/9 s:300x300 i:P iskey:0 type:B checksum:5882C48E plane_checksum:[2AA210FB 22D48FB8 3A3C23DB] mean:[123 110 148 ] stdev:[60.3 9.8 10.5 ]
[Parsed_showinfo_2 @ 00000198b67eeac0] n:  31 pts: 183808 pts_time:14.36   pos:  5023186 fmt:yuvj444p sar:16/9 s:300x300 i:P iskey:0 type:P checksum:5F536189 plane_checksum:[CDF178AF 3098A9D5 0EAE3EF6] mean:[118 110 147 ] stdev:[60.0 9.8 10.4 ]
[Parsed_showinfo_2 @ 00000198b67eeac0] n:  32 pts: 184320 pts_time:14.4    pos:  5070117 fmt:yuvj444p sar:16/9 s:300x300 i:P iskey:0 type:B checksum:D2670149 plane_checksum:[2A5FA9A8 69331B80 34003C12] mean:[118 110 147 ] stdev:[59.8 9.8 10.5 ]
[Parsed_showinfo_2 @ 00000198b67eeac0] n:  33 pts: 185344 pts_time:14.48   pos:  5102314 fmt:yuvj444p sar:16/9 s:300x300 i:P iskey:0 type:B checksum:61B9EF6F plane_checksum:[9333B2BB E86E790F DCB6C396] mean:[116 110 147 ] stdev:[60.0 9.9 10.6 ]
frame=   34 fps= 13 q=24.8 size=N/A time=00:00:14.52 bitrate=N/A speed= 5.7x    [Parsed_showinfo_2 @ 00000198b67eeac0] n:  34 pts: 194048 pts_time:15.16   pos:  5353801 fmt:yuvj444p sar:16/9 s:300x300 i:P iskey:0 type:P checksum:BBEF87C3 plane_checksum:[91567901 A90B0881 D13A0641] mean:[121 110 147 ] stdev:[62.9 10.2 10.9 ]
[Parsed_showinfo_2 @ 00000198b67eeac0] n:  35 pts: 196096 pts_time:15.32   pos:  5473977 fmt:yuvj444p sar:16/9 s:300x300 i:P iskey:0 type:B checksum:6C2EAF12 plane_checksum:[D30FF1D1 1BC29235 BA152AFD] mean:[122 110 147 ] stdev:[62.7 10.2 10.9 ]
[Parsed_showinfo_2 @ 00000198b67eeac0] n:  36 pts: 196608 pts_time:15.36   pos:  5495205 fmt:yuvj444p sar:16/9 s:300x300 i:P iskey:0 type:B checksum:5C76DC99 plane_checksum:[D84A4A0E 04EEBA48 6121D834] mean:[121 110 147 ] stdev:[62.7 10.2 10.9 ]
[Parsed_showinfo_2 @ 00000198b67eeac0] n:  37 pts: 197120 pts_time:15.4    pos:  5439749 fmt:yuvj444p sar:16/9 s:300x300 i:P iskey:0 type:P checksum:43059380 plane_checksum:[CC62D7F8 5215EA79 AFA2D0F1] mean:[121 110 147 ] stdev:[62.8 10.2 10.9 ]
[Parsed_showinfo_2 @ 00000198b67eeac0] n:  38 pts: 203264 pts_time:15.88   pos:  5754514 fmt:yuvj444p sar:16/9 s:300x300 i:P iskey:0 type:B checksum:4C5CD0D4 plane_checksum:[5210905A F93A4ED9 59A2F192] mean:[123 110 147 ] stdev:[62.1 10.0 11.1 ]
[Parsed_showinfo_2 @ 00000198b67eeac0] n:  39 pts: 203776 pts_time:15.92   pos:  5704702 fmt:yuvj444p sar:16/9 s:300x300 i:P iskey:0 type:P checksum:AA64C85B plane_checksum:[94A1A151 D42C415D 26CCE59E] mean:[123 110 147 ] stdev:[62.0 10.0 11.1 ]
[Parsed_showinfo_2 @ 00000198b67eeac0] n:  40 pts: 204288 pts_time:15.96   pos:  5796069 fmt:yuvj444p sar:16/9 s:300x300 i:P iskey:0 type:B checksum:DFC8D0CC plane_checksum:[32905A04 B6E65D8E 62EF193A] mean:[124 110 147 ] stdev:[61.5 9.9 11.0 ]
[Parsed_showinfo_2 @ 00000198b67eeac0] n:  41 pts: 204800 pts_time:16      pos:  5767127 fmt:yuvj444p sar:16/9 s:300x300 i:P iskey:0 type:P checksum:85DEFBF2 plane_checksum:[09837AC2 4BEE5505 D1F42C2B] mean:[124 110 147 ] stdev:[61.2 9.8 11.0 ]
[Parsed_showinfo_2 @ 00000198b67eeac0] n:  42 pts: 209408 pts_time:16.36   pos:  5961839 fmt:yuvj444p sar:16/9 s:300x300 i:P iskey:0 type:P checksum:A2E2AF63 plane_checksum:[67391684 2E146508 331733D7] mean:[122 111 146 ] stdev:[60.4 9.4 10.9 ]
[Parsed_showinfo_2 @ 00000198b67eeac0] n:  43 pts: 209920 pts_time:16.4    pos:  6004180 fmt:yuvj444p sar:16/9 s:300x300 i:P iskey:0 type:B checksum:18A2A191 plane_checksum:[2A01EB2F D28685E4 16BF306F] mean:[123 111 146 ] stdev:[60.3 9.3 10.8 ]
[Parsed_showinfo_2 @ 00000198b67eeac0] n:  44 pts: 214528 pts_time:16.76   pos:  6136009 fmt:yuvj444p sar:16/9 s:300x300 i:P iskey:0 type:P checksum:0D46FA2F plane_checksum:[1F97B8BB 73746454 72FADD11] mean:[122 112 143 ] stdev:[60.7 9.1 10.4 ]
[Parsed_showinfo_2 @ 00000198b67eeac0] n:  45 pts: 215040 pts_time:16.8    pos:  6163577 fmt:yuvj444p sar:16/9 s:300x300 i:P iskey:0 type:P checksum:E44D8986 plane_checksum:[DFFD7627 5B8AA9F8 74766958] mean:[120 113 143 ] stdev:[60.9 9.1 10.6 ]
[Parsed_showinfo_2 @ 00000198b67eeac0] n:  46 pts: 217088 pts_time:16.96   pos:  6242261 fmt:yuvj444p sar:16/9 s:300x300 i:P iskey:0 type:P checksum:0E65ABE8 plane_checksum:[A454DC14 5DAFD9A7 4555F60F] mean:[124 113 142 ] stdev:[64.4 9.2 10.8 ]
[Parsed_showinfo_2 @ 00000198b67eeac0] n:  47 pts: 217600 pts_time:17      pos:  6267127 fmt:yuvj444p sar:16/9 s:300x300 i:P iskey:0 type:P checksum:594EE18A plane_checksum:[1956E4AD 4721CE08 0F512EC6] mean:[122 113 142 ] stdev:[64.1 9.2 10.9 ]
frame=   48 fps= 16 q=24.8 size=N/A time=00:00:17.04 bitrate=N/A speed=5.57x    [Parsed_showinfo_2 @ 00000198b67eeac0] n:  48 pts: 219648 pts_time:17.16   pos:  6342090 fmt:yuvj444p sar:16/9 s:300x300 i:P iskey:0 type:P checksum:5FD65303 plane_checksum:[73AFC6ED 51BEC35D C3C2C89B] mean:[116 113 143 ] stdev:[63.7 9.4 11.1 ]
[Parsed_showinfo_2 @ 00000198b67eeac0] n:  49 pts: 220160 pts_time:17.2    pos:  6363363 fmt:yuvj444p sar:16/9 s:300x300 i:P iskey:1 type:I checksum:FBEFB719 plane_checksum:[DA8A1F76 F7373F1E 69905885] mean:[116 112 143 ] stdev:[64.3 9.4 11.2 ]
[Parsed_showinfo_2 @ 00000198b67eeac0] n:  50 pts: 222720 pts_time:17.4    pos:  6507245 fmt:yuvj444p sar:16/9 s:300x300 i:P iskey:0 type:P checksum:D85EB424 plane_checksum:[166DE3EE 3FC33BE0 22389447] mean:[116 112 144 ] stdev:[66.5 9.4 11.0 ]
[Parsed_showinfo_2 @ 00000198b67eeac0] n:  51 pts: 223744 pts_time:17.48   pos:  6569324 fmt:yuvj444p sar:16/9 s:300x300 i:P iskey:0 type:B checksum:4484B4D9 plane_checksum:[B5556D28 A80341E6 1ED205CB] mean:[117 112 144 ] stdev:[66.9 9.5 11.2 ]
[Parsed_showinfo_2 @ 00000198b67eeac0] n:  52 pts: 224256 pts_time:17.52   pos:  6542808 fmt:yuvj444p sar:16/9 s:300x300 i:P iskey:0 type:P checksum:FC1B2706 plane_checksum:[88A84020 4648E5F4 8F7300E3] mean:[117 112 144 ] stdev:[67.0 9.6 11.2 ]
[Parsed_showinfo_2 @ 00000198b67eeac0] n:  53 pts: 224768 pts_time:17.56   pos:  6578026 fmt:yuvj444p sar:16/9 s:300x300 i:P iskey:0 type:P checksum:54B9414E plane_checksum:[F0081308 BF75E30C CB064B2B] mean:[117 112 144 ] stdev:[66.9 9.6 11.2 ]
[Parsed_showinfo_2 @ 00000198b67eeac0] n:  54 pts: 225280 pts_time:17.6    pos:  6595249 fmt:yuvj444p sar:16/9 s:300x300 i:P iskey:0 type:P checksum:0D0BF453 plane_checksum:[82AA581D 0DD4EA30 42ADB1F7] mean:[115 112 145 ] stdev:[66.0 9.6 11.2 ]
[Parsed_showinfo_2 @ 00000198b67eeac0] n:  55 pts: 227328 pts_time:17.76   pos:  6689674 fmt:yuvj444p sar:16/9 s:300x300 i:P iskey:0 type:B checksum:014BA208 plane_checksum:[519D5509 6CF77BE6 3634D10A] mean:[109 112 145 ] stdev:[66.0 9.8 11.4 ]
[Parsed_showinfo_2 @ 00000198b67eeac0] n:  56 pts: 227840 pts_time:17.8    pos:  6723867 fmt:yuvj444p sar:16/9 s:300x300 i:P iskey:0 type:B checksum:827C6B02 plane_checksum:[EB58E6E7 430785EF 241DFE0E] mean:[109 112 145 ] stdev:[66.0 9.9 11.4 ]
[Parsed_showinfo_2 @ 00000198b67eeac0] n:  57 pts: 232448 pts_time:18.16   pos:  6870489 fmt:yuvj444p sar:16/9 s:300x300 i:P iskey:0 type:B checksum:D0A88D5E plane_checksum:[B1B695FD 2C5F005A AB4CF6F8] mean:[112 112 146 ] stdev:[65.4 9.8 11.3 ]
[Parsed_showinfo_2 @ 00000198b67eeac0] n:  58 pts: 232960 pts_time:18.2    pos:  6852092 fmt:yuvj444p sar:16/9 s:300x300 i:P iskey:0 type:P checksum:7B64C9B9 plane_checksum:[59620983 DD6DCE34 ED46F1F3] mean:[111 112 146 ] stdev:[65.3 9.8 11.3 ]
[Parsed_showinfo_2 @ 00000198b67eeac0] n:  59 pts: 235008 pts_time:18.36   pos:  6938975 fmt:yuvj444p sar:16/9 s:300x300 i:P iskey:0 type:P checksum:5387D845 plane_checksum:[9BEBC595 D6C34B74 A53CC72D] mean:[114 112 146 ] stdev:[64.2 9.8 11.3 ]
[Parsed_showinfo_2 @ 00000198b67eeac0] n:  60 pts: 235520 pts_time:18.4    pos:  6990560 fmt:yuvj444p sar:16/9 s:300x300 i:P iskey:0 type:B checksum:E566CA31 plane_checksum:[E89AA468 BC6A3DA2 E565E818] mean:[115 112 146 ] stdev:[64.1 9.8 11.4 ]
[Parsed_showinfo_2 @ 00000198b67eeac0] n:  61 pts: 237568 pts_time:18.56   pos:  7020158 fmt:yuvj444p sar:16/9 s:300x300 i:P iskey:0 type:P checksum:41E47ADC plane_checksum:[24C32190 35D38D15 5C8DCC28] mean:[117 112 146 ] stdev:[64.6 9.6 11.4 ]
[Parsed_showinfo_2 @ 00000198b67eeac0] n:  62 pts: 238080 pts_time:18.6    pos:  7095415 fmt:yuvj444p sar:16/9 s:300x300 i:P iskey:0 type:B checksum:45114A1A plane_checksum:[FC3DBA2A 908CED14 496FA2BE] mean:[116 112 146 ] stdev:[64.9 9.6 11.4 ]
[Parsed_showinfo_2 @ 00000198b67eeac0] n:  63 pts: 239616 pts_time:18.72   pos:  7106205 fmt:yuvj444p sar:16/9 s:300x300 i:P iskey:0 type:P checksum:3E9EAB88 plane_checksum:[015BDBF8 60FC2E66 3D60A11B] mean:[116 112 145 ] stdev:[65.4 9.6 11.5 ]
[Parsed_showinfo_2 @ 00000198b67eeac0] n:  64 pts: 240128 pts_time:18.76   pos:  7139534 fmt:yuvj444p sar:16/9 s:300x300 i:P iskey:0 type:P checksum:34B6F104 plane_checksum:[30607B05 F2AF48FF 98132D00] mean:[115 112 145 ] stdev:[65.6 9.6 11.5 ]
[Parsed_showinfo_2 @ 00000198b67eeac0] n:  65 pts: 240640 pts_time:18.8    pos:  7185361 fmt:yuvj444p sar:16/9 s:300x300 i:P iskey:0 type:B checksum:AB6FE2D6 plane_checksum:[9EEB4BBE 8B2771E8 C0E92530] mean:[115 112 145 ] stdev:[65.5 9.6 11.4 ]
[Parsed_showinfo_2 @ 00000198b67eeac0] n:  66 pts: 242688 pts_time:18.96   pos:  7209084 fmt:yuvj444p sar:16/9 s:300x300 i:P iskey:0 type:P checksum:852916B7 plane_checksum:[47A44D5F EACD5D7E 72436BCB] mean:[116 112 145 ] stdev:[64.4 9.5 11.4 ]
[Parsed_showinfo_2 @ 00000198b67eeac0] n:  67 pts: 243200 pts_time:19      pos:  7249192 fmt:yuvj444p sar:16/9 s:300x300 i:P iskey:1 type:I checksum:EE4BF7F3 plane_checksum:[8DA142FA 897EA7CA 51260D2F] mean:[78 120 126 ] stdev:[51.4 5.4 8.4 ]
frame=   68 fps= 19 q=24.8 size=N/A time=00:00:19.04 bitrate=N/A speed=5.33x    [Parsed_showinfo_2 @ 00000198b67eeac0] n:  68 pts: 262144 pts_time:20.48   pos:  7801319 fmt:yuvj444p sar:16/9 s:300x300 i:P iskey:1 type:I checksum:453B89F5 plane_checksum:[C773E525 AEF13DD3 9EF766EE] mean:[76 123 131 ] stdev:[47.8 5.3 5.4 ]
[Parsed_showinfo_2 @ 00000198b67eeac0] n:  69 pts: 276480 pts_time:21.6    pos:  8405077 fmt:yuvj444p sar:16/9 s:300x300 i:P iskey:0 type:P checksum:AF60906B plane_checksum:[B4E6A43B D0114333 0C15A8EE] mean:[77 123 131 ] stdev:[46.4 5.2 5.1 ]
[Parsed_showinfo_2 @ 00000198b67eeac0] n:  70 pts: 279040 pts_time:21.8    pos:  8558899 fmt:yuvj444p sar:16/9 s:300x300 i:P iskey:0 type:B checksum:C1A8E5E1 plane_checksum:[B957FB79 39162D15 D6A2BD44] mean:[77 123 131 ] stdev:[46.3 5.0 5.0 ]
frame=   71 fps= 17 q=24.8 size=N/A time=00:00:21.84 bitrate=N/A speed=5.35x    [Parsed_showinfo_2 @ 00000198b67eeac0] n:  71 pts: 281600 pts_time:22      pos:  8682677 fmt:yuvj444p sar:16/9 s:300x300 i:P iskey:0 type:B checksum:B41D3C9F plane_checksum:[091381EC A78773CB FF1E46D9] mean:[78 123 131 ] stdev:[48.3 4.9 4.6 ]
[Parsed_showinfo_2 @ 00000198b67eeac0] n:  72 pts: 283648 pts_time:22.16   pos:  8769728 fmt:yuvj444p sar:16/9 s:300x300 i:P iskey:0 type:B checksum:5D42EE76 plane_checksum:[98D8E861 D531C687 5CB23F7F] mean:[82 124 130 ] stdev:[50.8 4.8 4.6 ]
[Parsed_showinfo_2 @ 00000198b67eeac0] n:  73 pts: 286720 pts_time:22.4    pos:  8931133 fmt:yuvj444p sar:16/9 s:300x300 i:P iskey:0 type:B checksum:3382E663 plane_checksum:[0053FD26 5806EA5B A7B7FEC4] mean:[83 124 130 ] stdev:[48.9 4.6 4.8 ]
[Parsed_showinfo_2 @ 00000198b67eeac0] n:  74 pts: 289280 pts_time:22.6    pos:  9060181 fmt:yuvj444p sar:16/9 s:300x300 i:P iskey:0 type:B checksum:5D476AA6 plane_checksum:[92748867 B2EA18A4 891DC98C] mean:[83 124 130 ] stdev:[48.2 4.6 5.1 ]
[Parsed_showinfo_2 @ 00000198b67eeac0] n:  75 pts: 291840 pts_time:22.8    pos:  9170156 fmt:yuvj444p sar:16/9 s:300x300 i:P iskey:0 type:B checksum:90966A10 plane_checksum:[944AB694 86070D5F FA09A60E] mean:[83 124 130 ] stdev:[49.1 4.6 5.4 ]
[Parsed_showinfo_2 @ 00000198b67eeac0] n:  76 pts: 294400 pts_time:23      pos:  9308552 fmt:yuvj444p sar:16/9 s:300x300 i:P iskey:0 type:B checksum:8E89BCF0 plane_checksum:[D5654645 F7AF0D01 728F69AA] mean:[81 124 130 ] stdev:[48.7 4.7 5.7 ]
[Parsed_showinfo_2 @ 00000198b67eeac0] n:  77 pts: 296448 pts_time:23.16   pos:  9385694 fmt:yuvj444p sar:16/9 s:300x300 i:P iskey:0 type:B checksum:181C5C6A plane_checksum:[380CDFF6 56842045 99055C20] mean:[79 124 130 ] stdev:[47.5 4.7 5.9 ]
[Parsed_showinfo_2 @ 00000198b67eeac0] n:  78 pts: 299520 pts_time:23.4    pos:  9520391 fmt:yuvj444p sar:16/9 s:300x300 i:P iskey:0 type:B checksum:4784972F plane_checksum:[64943B1D C7FE180E E6C44404] mean:[78 124 130 ] stdev:[47.0 4.6 6.1 ]
